<?xml version="1.0" encoding="utf-8"?>
<!-- Generator: Adobe Illustrator 15.0.0, SVG Export Plug-In . SVG Version: 6.00 Build 0)  -->
<!DOCTYPE svg PUBLIC "-//W3C//DTD SVG 1.1//EN" "http://www.w3.org/Graphics/SVG/1.1/DTD/svg11.dtd">
<svg version="1.1" id="Layer_1" xmlns="http://www.w3.org/2000/svg" xmlns:xlink="http://www.w3.org/1999/xlink" x="0px" y="0px"
	 width="237.895px" height="314.737px" viewBox="0 0 237.895 314.737" enable-background="new 0 0 237.895 314.737"
	 xml:space="preserve">
<g>
	
		<linearGradient id="SVGID_1_" gradientUnits="userSpaceOnUse" x1="119.4546" y1="-48.0718" x2="135.9012" y2="-278.3302" gradientTransform="matrix(0.335 0 0 0.335 78.798 219.9538)">
		<stop  offset="0" style="stop-color:#FFFFFF"/>
		<stop  offset="0.1915" style="stop-color:#FCFEFF"/>
		<stop  offset="0.3251" style="stop-color:#F3FBFE"/>
		<stop  offset="0.4411" style="stop-color:#E4F7FD"/>
		<stop  offset="0.5471" style="stop-color:#CEF0FB"/>
		<stop  offset="0.6463" style="stop-color:#B1E7F9"/>
		<stop  offset="0.7405" style="stop-color:#8EDDF6"/>
		<stop  offset="0.8307" style="stop-color:#65D0F3"/>
		<stop  offset="0.9154" style="stop-color:#37C2EF"/>
		<stop  offset="0.9973" style="stop-color:#02B2EB"/>
		<stop  offset="1" style="stop-color:#00B1EB"/>
	</linearGradient>
	<path fill="url(#SVGID_1_)" d="M22.638,146.716c0,0,59.328,65.119,68.458,74.766c0,0,32.844,26.771,62.144-6.156
		c0,0,70.855-57.492,76.066-73.563c5.219-22.967-46.288-40.884-114.744-41.572C46.111,99.502,1.982,124.056,22.638,146.716z"/>
	<path fill="#FFFFFF" d="M108.699,99.502c-40.423,3.444-115.069,12.062-81.819,47.214v-5.175
		c-7.011-7.411-12.717-37.904,75.952-37.904L108.699,99.502z"/>
	
		<linearGradient id="SVGID_2_" gradientUnits="userSpaceOnUse" x1="-36.3999" y1="-486.1348" x2="-108.0448" y2="-453.296" gradientTransform="matrix(0.335 0 0 0.335 78.798 219.9538)">
		<stop  offset="0" style="stop-color:#FFFFFF"/>
		<stop  offset="1" style="stop-color:#000000"/>
	</linearGradient>
	<path fill="url(#SVGID_2_)" stroke="#808080" d="M87.184,114.664L46.585,10.842c-42.987,0-30.091,2.271-30.091,18.169
		l45.915,93.922L87.184,114.664z"/>
	
		<linearGradient id="SVGID_3_" gradientUnits="userSpaceOnUse" x1="118.8608" y1="65.0176" x2="138.7018" y2="-222.7708" gradientTransform="matrix(0.335 0 0 0.335 78.798 219.9538)">
		<stop  offset="0" style="stop-color:#231F20"/>
		<stop  offset="0.9438" style="stop-color:#8B8F9E"/>
	</linearGradient>
	<path fill="url(#SVGID_3_)" d="M33.07,153.258c0,0,51.175,50.41,61.281,71.207c9.025,9.542,43.033,15.632,56.07-6.425
		l65.847-63.402C179.108,172.552,107.392,182.207,33.07,153.258z"/>
	<path stroke="#FFFFFF" stroke-width="0.5094" d="M138.774,228.381c-13.288,5.537-34.842,6.681-47.678-6.899
		c-4.893,5.173-2.61,6.899,0,9.657l15.316,16.191l0.329,11.375c-6.52,0-15.646,6.204-15.646,6.204s-25.753-1.723-28.688,1.374
		c0,0-16.297,21.369,18.908,30.323c20.862,4.83,68.458,11.028,95.183-10.339c0,0,9.13-15.154-1.302-19.984h-17.602
		c-8.48,0-14.346-7.578-26.081-7.578l0.65-11.031c5.219-5.508,19.563-17.919,19.563-17.919c3.258-3.442,1.629-8.616-1.306-11.715
		C150.421,218.039,145.728,225.478,138.774,228.381z"/>
	<path fill="#FFFFFF" d="M134.773,263.527c0,0,28.363,19.645,36.513,22.74l-9.78,3.448
		C161.506,289.715,130.212,268.348,134.773,263.527z"/>
	<path fill="#FFFFFF" d="M107.392,234.584c0,0,10.345,2.753,20.865,0C128.257,234.584,121.211,245.33,107.392,234.584z"/>
	<path fill="#FFFFFF" d="M116.521,244.228h6.521l-0.653,20.681c0,0-0.575,5.406-10.433,0
		C111.957,264.909,124.104,257.241,116.521,244.228z"/>
	<path fill="#FFFFFF" d="M63.714,272.483c0,15.794,26.471,29.368,89.315,22.058C141.425,298.896,63.714,306.258,63.714,272.483z"/>
	<rect x="113.912" y="192.542" fill="#FFFFFF" width="5.215" height="30.321"/>
	<path fill="#FFFFFF" d="M149.116,99.502c39.119,3.444,123.87,29.631,59.325,55.135l3.917-4.138
		c18.22-10.623,41.074-31.704-63.242-48.242V99.502z"/>
	
		<linearGradient id="SVGID_4_" gradientUnits="userSpaceOnUse" x1="142.5112" y1="-174.1523" x2="69.6224" y2="125.5134" gradientTransform="matrix(0.335 0 0 0.335 78.798 219.9538)">
		<stop  offset="0.0112" style="stop-color:#FFF797"/>
		<stop  offset="0.0508" style="stop-color:#F8EB91"/>
		<stop  offset="0.1231" style="stop-color:#E7CA82"/>
		<stop  offset="0.2079" style="stop-color:#CE9C6D"/>
		<stop  offset="1" style="stop-color:#FFFFFF"/>
	</linearGradient>
	<path fill="url(#SVGID_4_)" d="M57.843,175.313l33.253,40.66c13.178,13.935,42.046,16.886,59.325-1.376l37.813-37.907
		c-6.516,0-21.841,0.34-26.729,5.517c-3.264,3.44-11.085-8.272-25.43-2.764c-6.518,0-16.619,9.309-23.467,2.069
		c-6.847-7.231-14.02,17.582-28.688,2.069c0,0-7.679-2.069-14.34-2.069L57.843,175.313z"/>
	
		<linearGradient id="SVGID_5_" gradientUnits="userSpaceOnUse" x1="123.0215" y1="-90.3887" x2="127.0904" y2="-149.4077" gradientTransform="matrix(0.335 0 0 0.335 78.798 219.9538)">
		<stop  offset="0.0112" style="stop-color:#FFF797"/>
		<stop  offset="0.0508" style="stop-color:#F8EB91"/>
		<stop  offset="0.1231" style="stop-color:#E7CA82"/>
		<stop  offset="0.2079" style="stop-color:#CE9C6D"/>
		<stop  offset="1" style="stop-color:#FFFFFF"/>
	</linearGradient>
	<path fill="url(#SVGID_5_)" d="M60.456,167.043c20.861,8.27,31.943,0.687,37.811,15.163c0,0,11.63-3.028,22.438,1.933
		c0,0,24.5-12.961,37.538-7.45l24.776-10.336c0,0-76.277,9.644-122.563-3.445V167.043z"/>
	
		<linearGradient id="SVGID_6_" gradientUnits="userSpaceOnUse" x1="118.3564" y1="-244.3867" x2="112.2866" y2="-147.2787" gradientTransform="matrix(0.335 0 0 0.335 78.798 219.9538)">
		<stop  offset="0" style="stop-color:#FFFFFF"/>
		<stop  offset="0.1915" style="stop-color:#FCFEFF"/>
		<stop  offset="0.3251" style="stop-color:#F3FBFE"/>
		<stop  offset="0.4411" style="stop-color:#E4F7FD"/>
		<stop  offset="0.5471" style="stop-color:#CEF0FB"/>
		<stop  offset="0.6463" style="stop-color:#B1E7F9"/>
		<stop  offset="0.7405" style="stop-color:#8EDDF6"/>
		<stop  offset="0.8307" style="stop-color:#65D0F3"/>
		<stop  offset="0.9154" style="stop-color:#37C2EF"/>
		<stop  offset="0.9973" style="stop-color:#02B2EB"/>
		<stop  offset="1" style="stop-color:#00B1EB"/>
	</linearGradient>
	<path fill="url(#SVGID_6_)" d="M29.486,143.955c13.041,13.783,106.591,38.933,178.955,10.682l0,0
		c-14.337,15.162-127.127,28.943-181.562-7.921L29.486,143.955z"/>
	
		<linearGradient id="SVGID_7_" gradientUnits="userSpaceOnUse" x1="224.4038" y1="-100.3599" x2="167.0088" y2="-171.6062" gradientTransform="matrix(0.335 0 0 0.335 78.798 219.9538)">
		<stop  offset="0.0112" style="stop-color:#FFF797"/>
		<stop  offset="0.0508" style="stop-color:#F8EB91"/>
		<stop  offset="0.1231" style="stop-color:#E7CA82"/>
		<stop  offset="0.2079" style="stop-color:#CE9C6D"/>
		<stop  offset="1" style="stop-color:#FFFFFF"/>
	</linearGradient>
	<path fill="url(#SVGID_7_)" stroke="#808080" d="M35.679,142.915c0-8.954,2.618-9.791,13.692-15.155
		c15.647-7.58-5.74,15.024,15.647-7.58c5.54-5.86-7.674-28.922,19.327-3.763c0,0,56.95-47.927,69.335-1.752
		c0,0,20.865,8.959,20.865,17.232c19.809-3.614,27.148,22.697,26.075,19.29l9.456-3.095l-3.456,7.243
		c-26.365,7.577-106.294,19.857-169.583-6.275l0,0L35.679,142.915z"/>
	
		<radialGradient id="SVGID_8_" cx="-48.9287" cy="-165.561" r="273.6243" gradientTransform="matrix(0.335 0 0 0.3541 78.798 200.8564)" gradientUnits="userSpaceOnUse">
		<stop  offset="0.19" style="stop-color:#FFF200"/>
		<stop  offset="0.5752" style="stop-color:#FBC317"/>
		<stop  offset="1" style="stop-color:#F68B33"/>
	</radialGradient>
	<path fill="url(#SVGID_8_)" d="M127.603,93.991c-5.213-5.52-13.69,6.2-24.771,9.646c-11.083,3.444-27.384,4.135-15.647,11.027
		c11.735,6.891-5.215-6.208-9.126,9.647c0,0-6.849,7.925-15.65-1.379c0,0,4.565,7.582,13.039,7.582
		c-9.452,9.993-3.912,22.058,8.474,22.058c0,0-24.775-12.408-3.911-19.302c0,0,5.218-2.756,5.218,6.202c0,0-0.653-0.685,5.213-6.891
		c0,0,5.957,1.416,3.259,16.542l2.698-15.125c0,0-2.045,14.441,7.081,4.79c9.13-9.654,4.565,3.447,4.565,3.447
		s-11.732,15.849,8.477,15.849c0,0-24.123-4.825,1.303-21.363c0,0,7.17,2.068,7.17,5.515c0,0,9.128-0.693,9.128-4.828h8.477
		c0,0,6.459,11.261-14.998,14.474l18.255-4.136c4.24,4.481,9.127,10.339,12.385-2.757c0,0,15.649-11.03,0-15.159
		c0,0,2.611-11.031-9.127-11.031c0,0,13.043,14.474-2.605,11.031c0,0,0-16.544-14.346-4.83c0,0,9.13-19.291-16.948-7.578
		c0,0-3.826,22.879-14.995,3.445c-11.166-19.429,17.603,17.917,9.778-13.093C110,107.772,111.304,98.814,127.603,93.991z"/>
	
		<linearGradient id="SVGID_9_" gradientUnits="userSpaceOnUse" x1="209.7896" y1="-244.7134" x2="218.0726" y2="-360.6794" gradientTransform="matrix(0.335 0 0 0.335 85.7292 226.8849)">
		<stop  offset="0.0112" style="stop-color:#562300"/>
		<stop  offset="0.4831" style="stop-color:#D2232A"/>
		<stop  offset="0.5853" style="stop-color:#CE2329"/>
		<stop  offset="0.6771" style="stop-color:#C42325"/>
		<stop  offset="0.7648" style="stop-color:#B1231F"/>
		<stop  offset="0.8501" style="stop-color:#972316"/>
		<stop  offset="0.9328" style="stop-color:#77230B"/>
		<stop  offset="1" style="stop-color:#562300"/>
	</linearGradient>
	<path fill="url(#SVGID_9_)" d="M172.39,125.484c0,8.752-6.712,15.853-14.993,15.853s-14.996-7.101-14.996-15.853
		c0-8.757,6.714-15.856,14.996-15.856S172.39,116.727,172.39,125.484z"/>
</g>
</svg>
